<?xml version="1.0" encoding="UTF-8"?>
<svg xmlns="http://www.w3.org/2000/svg" xmlns:xlink="http://www.w3.org/1999/xlink" width="500px" height="px" viewBox="0 0 499 456" version="1.1">
<g id="surface1">
<path style=" stroke:none;fill-rule:nonzero;fill:rgb(7.058824%,40%,66.27451%);fill-opacity:1;" d="M 64.25 293.945312 C 64.675781 294.910156 65.160156 295.800781 65.679688 296.691406 C 65.917969 297.210938 66.253906 297.75 66.546875 298.230469 C 67.03125 299.195312 67.550781 300.121094 68.050781 301.050781 L 70.957031 305.949219 C 71.496094 306.855469 72.015625 307.746094 72.625 308.636719 C 73.644531 310.382812 74.851562 312.085938 75.90625 313.832031 C 76.386719 314.554688 76.832031 315.277344 77.371094 316 C 79.40625 319.175781 81.261719 321.808594 83.242188 324.367188 C 84.652344 326.277344 86.058594 328.152344 87.578125 330.027344 C 88.078125 330.730469 88.636719 331.4375 89.15625 332.140625 L 93.25 337.113281 C 93.75 337.6875 94.25 338.355469 94.789062 338.949219 C 96.601562 341.136719 98.53125 343.253906 100.457031 345.402344 C 100.457031 345.441406 100.511719 345.476562 100.550781 345.535156 C 102.941406 348.539062 105.515625 351.210938 108.332031 353.585938 L 108.40625 353.660156 C 109.890625 355.179688 111.371094 356.683594 112.945312 358.167969 L 114.816406 359.964844 C 116.875 361.894531 118.929688 363.804688 121.097656 365.660156 C 121.136719 365.660156 121.15625 365.699219 121.191406 365.714844 L 122.246094 366.644531 C 124.136719 368.292969 126.046875 369.925781 127.992188 371.449219 L 130.308594 373.394531 C 131.882812 374.65625 133.511719 375.84375 135.125 377.085938 L 137.644531 379.015625 C 139.367188 380.316406 141.203125 381.578125 142.964844 382.839844 C 143.613281 383.300781 144.261719 383.765625 144.925781 384.191406 L 145.464844 384.617188 L 150.671875 388.03125 L 152.894531 389.515625 C 155.617188 391.261719 158.324219 392.890625 161.03125 394.523438 C 161.808594 394.914062 162.585938 395.339844 163.308594 395.785156 C 165.308594 396.9375 167.386719 398.105469 169.40625 399.164062 C 170.515625 399.792969 171.664062 400.332031 172.8125 400.90625 C 174.203125 401.683594 175.648438 402.445312 177.132812 403.226562 C 177.539062 403.355469 177.871094 403.484375 178.207031 403.671875 L 178.28125 403.597656 C 178.890625 403.875 179.464844 404.171875 180.058594 404.46875 C 182.28125 405.582031 184.597656 406.636719 187.007812 407.675781 C 187.453125 407.863281 187.933594 408.046875 188.414062 408.308594 C 191.085938 409.476562 193.753906 410.589844 196.511719 411.664062 C 197.144531 411.851562 197.808594 412.164062 198.457031 412.40625 C 200.960938 413.351562 203.535156 414.316406 206.09375 415.226562 L 207.019531 415.5625 C 209.855469 416.523438 212.652344 417.453125 215.542969 418.324219 C 216.210938 418.511719 216.894531 418.75 217.597656 418.9375 C 220.546875 419.828125 223.398438 420.882812 226.382812 421.441406 C 416.734375 456 472.042969 307.433594 472.042969 307.433594 C 425.574219 367.71875 343.097656 383.617188 264.996094 365.921875 C 262.105469 365.253906 259.214844 364.324219 256.289062 363.472656 C 252.15625 362.300781 248.058594 361.007812 244.003906 359.59375 L 245.765625 360.132812 L 244.617188 359.6875 C 242.09375 358.835938 239.667969 357.886719 237.203125 356.941406 C 236.601562 356.6875 235.988281 356.449219 235.367188 356.238281 L 235.164062 356.179688 C 232.441406 355.085938 229.792969 353.972656 227.160156 352.804688 C 226.585938 352.621094 226.105469 352.359375 225.53125 352.136719 C 222.414062 350.777344 219.324219 349.355469 216.265625 347.871094 L 218.824219 349.003906 C 218.15625 348.707031 217.5 348.386719 216.859375 348.039062 C 215.117188 347.222656 213.375 346.292969 211.671875 345.421875 C 210.371094 344.804688 209.09375 344.152344 207.835938 343.457031 L 208.207031 343.640625 C 206.113281 342.527344 204.015625 341.324219 201.90625 340.191406 C 201.273438 339.746094 200.550781 339.375 199.828125 338.96875 C 196.691406 337.140625 193.589844 335.246094 190.527344 333.289062 L 191.695312 333.996094 C 190.910156 333.511719 190.144531 332.996094 189.398438 332.457031 L 189.507812 332.53125 C 187.519531 331.304688 185.566406 330.019531 183.652344 328.671875 C 183.023438 328.261719 182.449219 327.820312 181.800781 327.375 C 179.804688 326.007812 177.839844 324.597656 175.910156 323.144531 L 176.351562 323.460938 C 175.574219 322.828125 174.742188 322.234375 173.90625 321.621094 C 172.277344 320.34375 170.628906 319.117188 168.996094 317.78125 L 166.8125 316.039062 C 164.480469 314.183594 162.195312 312.273438 159.953125 310.308594 L 159.9375 310.289062 L 153.507812 304.445312 L 151.652344 302.703125 C 150.132812 301.160156 148.578125 299.695312 147.019531 298.175781 L 145.222656 296.320312 C 143.304688 294.417969 141.433594 292.46875 139.609375 290.476562 L 139.5 290.347656 L 139.183594 290.085938 C 137.222656 287.929688 135.289062 285.746094 133.382812 283.539062 C 132.882812 282.964844 132.421875 282.351562 131.902344 281.738281 L 127.695312 276.636719 C 125.800781 274.253906 123.945312 271.835938 122.136719 269.386719 L 121.394531 268.347656 C 78.074219 209.429688 62.398438 128.125 97.066406 61.417969 L 66.457031 100.171875 C 27.082031 156.542969 31.953125 229.855469 62.066406 289.714844 C 62.75 291.183594 63.511719 292.554688 64.25 293.945312 Z M 64.25 293.945312 "/>
<path style=" stroke:none;fill-rule:nonzero;fill:rgb(0%,0%,0%);fill-opacity:1;" d="M 196.867188 212.734375 L 196.660156 212.4375 L 196.496094 212.214844 Z M 196.867188 212.734375 "/>
<path style=" stroke:none;fill-rule:nonzero;fill:rgb(7.058824%,40%,66.27451%);fill-opacity:1;" d="M 217.582031 237.070312 L 219.25 238.742188 C 221.359375 240.78125 223.527344 242.765625 225.734375 244.75 L 226.011719 244.992188 C 228.234375 246.957031 230.738281 249.015625 233.3125 251.019531 L 233.703125 251.316406 C 234.332031 251.746094 234.867188 252.246094 235.480469 252.671875 C 238.074219 254.675781 240.6875 256.585938 243.410156 258.496094 L 243.6875 258.664062 C 244.835938 259.5 246.058594 260.257812 247.359375 261.074219 C 247.875 261.410156 248.46875 261.855469 249.023438 262.1875 C 250.988281 263.449219 252.917969 264.617188 254.898438 265.824219 C 255.214844 265.953125 255.492188 266.121094 255.789062 266.25 C 257.457031 267.269531 259.273438 268.253906 261.015625 269.144531 C 261.625 269.515625 262.21875 269.792969 262.847656 270.144531 C 264.089844 270.757812 265.3125 271.40625 266.5 272.039062 L 267.089844 272.296875 C 269.59375 273.523438 272.148438 274.671875 274.652344 275.804688 C 275.28125 276.042969 275.820312 276.25 276.355469 276.507812 C 278.414062 277.398438 280.507812 278.253906 282.5625 279.03125 C 283.488281 279.347656 284.359375 279.71875 285.230469 279.996094 C 287.121094 280.699219 289.105469 281.351562 290.976562 282 L 293.570312 282.835938 C 296.273438 283.667969 299.015625 284.761719 301.890625 285.207031 C 448.882812 309.433594 482.902344 196.707031 482.902344 196.707031 C 452.273438 240.613281 392.996094 261.539062 329.832031 245.195312 C 326.679688 244.398438 323.550781 243.503906 320.457031 242.507812 L 321.511719 242.804688 C 320.621094 242.5625 319.84375 242.285156 318.992188 242.023438 C 317.066406 241.355469 315.082031 240.707031 313.210938 240.019531 L 310.542969 239.019531 C 308.46875 238.183594 306.355469 237.40625 304.335938 236.515625 C 303.707031 236.234375 303.128906 236.050781 302.648438 235.773438 C 300.054688 234.605469 297.441406 233.453125 294.902344 232.230469 L 291.085938 230.246094 L 288.882812 229.132812 C 287.175781 228.242188 285.601562 227.3125 283.972656 226.367188 C 283.554688 226.171875 283.152344 225.949219 282.765625 225.699219 L 282.824219 225.71875 C 280.859375 224.492188 278.820312 223.308594 276.929688 222.0625 C 276.300781 221.710938 275.726562 221.285156 275.132812 220.914062 L 271.277344 218.410156 C 268.609375 216.554688 266 214.570312 263.347656 212.640625 C 262.753906 212.101562 262.179688 211.65625 261.605469 211.175781 C 233.832031 189.414062 211.929688 159.679688 201.535156 126.011719 C 190.582031 91.007812 192.992188 51.753906 211.910156 19.90625 L 188.65625 52.699219 C 160.101562 93.53125 161.714844 148.105469 183.949219 191.289062 C 188.007812 199.265625 192.121094 206 196.660156 212.417969 C 200.886719 218.464844 205.554688 225.550781 211.1875 230.410156 C 213.191406 232.691406 215.339844 234.863281 217.582031 237.070312 Z M 217.582031 237.070312 "/>
<path style=" stroke:none;fill-rule:nonzero;fill:rgb(0%,0%,0%);fill-opacity:1;" d="M 83.335938 324.480469 L 83.261719 324.367188 L 83.132812 324.199219 Z M 160.382812 310.679688 L 160.566406 310.808594 L 160.601562 310.863281 Z M 160.382812 310.679688 "/>
<path style=" stroke:none;fill-rule:nonzero;fill:rgb(7.058824%,40%,66.27451%);fill-opacity:1;" d="M 291.421875 17.195312 C 274.578125 41.8125 272.964844 72.382812 284.5625 99.523438 C 296.886719 128.347656 322.066406 150.980469 351.417969 161.703125 C 352.621094 162.164062 353.789062 162.554688 355.03125 163 L 356.660156 163.5 C 358.367188 164.039062 360.089844 164.667969 361.851562 165.058594 C 443.027344 180.660156 465.003906 123.542969 470.914062 115.140625 C 451.585938 142.78125 419.179688 149.421875 379.414062 139.792969 C 375.957031 138.949219 372.554688 137.898438 369.226562 136.640625 L 369.835938 136.84375 C 365.691406 135.410156 361.632812 133.738281 357.679688 131.835938 L 358.386719 132.152344 C 350.789062 128.441406 344.265625 124.433594 338.207031 119.835938 C 302.667969 92.9375 280.691406 41.71875 303.890625 0 Z M 291.421875 17.195312 "/>
</g>
</svg>
